<svg id="Layer_1" data-name="Layer 1" xmlns="http://www.w3.org/2000/svg" viewBox="0 0 91.25 31.73"><defs><style>.cls-1{fill:#fff;}</style></defs><title>Artboard 1</title><path class="cls-1" d="M1.07,4.14h.59V9.53h.65v.53H1.53c-.37,0-.46-.11-.46-.46Z"/><path class="cls-1" d="M4.2,4.14V8.39c0,.88.79,1.25,1.6,1.25s1.6-.38,1.6-1.25V1.78H8V8.39c0,1.24-1.1,1.79-2.19,1.79S3.61,9.63,3.61,8.39V4.14Z"/><path class="cls-1" d="M3,2.66H6.81l-.24.53H3Z"/><path class="cls-1" d="M12.26,4c1.31,0,2.21.64,2.21,2.54v3.49h-.59V6.57c0-1.57-.71-2-1.62-2-1.42,0-2,1.12-2,2.75,0,1.47.51,2.34,1.53,2.34a2.13,2.13,0,0,0,1.11-.32l.18.5a2.53,2.53,0,0,1-1.29.36c-1.37,0-2.12-1.09-2.12-2.88C9.65,5,10.7,4,12.26,4Z"/><path class="cls-1" d="M17,4.14V8.39c0,.88.79,1.25,1.6,1.25s1.6-.38,1.6-1.25V4.14h.59V8.39c0,1.24-1.1,1.79-2.19,1.79s-2.19-.54-2.19-1.79V4.14Z"/><path class="cls-1" d="M18.83,2.66h2.51l-.24.53H18.24v-1h-.71V1.66h.78c.43,0,.52.11.52.5Z"/><path class="cls-1" d="M24.93,10.06h-.59V5.91c0-.94-.4-1.35-1.08-1.35a3.24,3.24,0,0,0-1.05.22l-.15-.51A3.51,3.51,0,0,1,23.28,4c1,0,1.65.57,1.65,1.88Z"/><path class="cls-1" d="M27.41,4.14V8.07c0,1.11.58,1.57,1.37,1.57,1,0,1.82-.82,1.82-2.34V4.14h.59V8.25a10.53,10.53,0,0,0,.12,1.81h-.59a6.34,6.34,0,0,1-.12-1,2.15,2.15,0,0,1-1.91,1.09c-1,0-1.88-.51-1.88-2.11V4.14Z"/><path class="cls-1" d="M33.21,3.46A4.33,4.33,0,0,1,33.92.53H31.85L32.09,0h2.66V.32a4.48,4.48,0,0,0-.95,3.14V9.53h.65v.53h-.78c-.37,0-.46-.11-.46-.46Z"/><path class="cls-1" d="M38.06,6.84v.53H36.35v.34a1.7,1.7,0,0,0,1.7,1.93c1.23,0,2-.7,2-2.6s-.9-2.49-1.82-2.49a1.61,1.61,0,0,0-1.68,1.17l-.58-.21A2.18,2.18,0,0,1,38.2,4c1.43,0,2.41.84,2.41,3s-.88,3.14-2.56,3.14c-1.3,0-2.3-.8-2.3-2.57V7.33c0-.37.08-.49.5-.49Z"/><path class="cls-1" d="M42.38,6a10.53,10.53,0,0,0-.12-1.81h.59a6.34,6.34,0,0,1,.12,1A2.11,2.11,0,0,1,44.86,4c1,0,1.85.5,1.85,2.09v3.94h-.59V6.12c0-1.11-.54-1.56-1.38-1.56S43,5.37,43,6.9v3.16h-.59Z"/><path class="cls-1" d="M42.59,3.2l.24-.53h3.29v-1h.59V3.2Z"/><path class="cls-1" d="M52.82,10.06h-.59V7.46a9.75,9.75,0,0,0-1.57-.17c-1.33,0-1.76.51-1.76,1.22A1,1,0,0,0,50,9.65a2.13,2.13,0,0,0,1-.24l.18.5a2.51,2.51,0,0,1-1.14.27A1.58,1.58,0,0,1,48.3,8.51c0-1,.7-1.75,2.38-1.75a8.9,8.9,0,0,1,1.55.17v-.8a1.41,1.41,0,0,0-1.47-1.56,1.51,1.51,0,0,0-1.61,1.14l-.58-.21A2.05,2.05,0,0,1,50.76,4a1.91,1.91,0,0,1,2.06,2.09Z"/><path class="cls-1" d="M57,10.06h-.59V5.91c0-.94-.4-1.35-1.08-1.35a3.24,3.24,0,0,0-1.05.22l-.15-.51A3.51,3.51,0,0,1,55.36,4c1,0,1.65.57,1.65,1.88Z"/><path class="cls-1" d="M61.27,4c1.31,0,2.21.64,2.21,2.54v3.49h-.59V6.57c0-1.57-.71-2-1.62-2-1.42,0-2,1.12-2,2.75,0,1.47.51,2.34,1.53,2.34a2.13,2.13,0,0,0,1.11-.32l.18.5a2.53,2.53,0,0,1-1.29.36c-1.37,0-2.12-1.09-2.12-2.88C58.66,5,59.71,4,61.27,4Z"/><path class="cls-1" d="M69.17,6.33c0-1.18-.38-1.78-1.73-1.78a6.11,6.11,0,0,0-1.33.18L66.74,6c-.66.37-.77.76-.77,1.65v2.46h-.59V7.46c0-.88.06-1.23.64-1.66l-.75-1.44A8.94,8.94,0,0,1,67.45,4c1.75,0,2.31.77,2.31,2.31v3.73h-.59Z"/><path class="cls-1" d="M75.11,5a3.91,3.91,0,0,0-1.67-.41c-.73,0-1.34.3-1.34,1,0,1.54,3.33.56,3.33,2.89,0,1.25-1,1.69-2,1.69a4.63,4.63,0,0,1-2-.47l.19-.53a4.49,4.49,0,0,0,1.88.47c.75,0,1.41-.28,1.41-1.16,0-1.7-3.33-.72-3.33-2.89,0-1.15.91-1.57,1.93-1.57a4.51,4.51,0,0,1,1.87.43Z"/><path class="cls-1" d="M77.38,5.34h1.74v.53H77.3c-.37,0-.51-.12-.51-.46V4.69h.59Zm0,3.25h1.74v.53H77.3c-.37,0-.51-.12-.51-.46V7.94h.59Z"/><path class="cls-1" d="M81.13,4.14V8.39c0,.88.79,1.25,1.6,1.25s1.6-.38,1.6-1.25V4.14h.59V8.39c0,1.24-1.1,1.79-2.19,1.79s-2.19-.54-2.19-1.79V4.14Z"/><path class="cls-1" d="M82.93,2.66h2.82l-.24.53h-2.7c-.37,0-.47-.07-.47-.44v-1h.59Z"/><path class="cls-1" d="M87.9,10.06a.31.31,0,0,1-.35-.24L86.34,7H87l1.08,2.54h.12c1.16,0,1.87-.84,1.87-2.51s-.44-2.34-1.69-2.34h-.44V4.14h.44c1.66,0,2.28,1,2.28,2.88,0,2-.86,3-2.46,3Z"/><g id="IT_Openhouse" data-name="IT Openhouse"><path class="cls-1" d="M0,13.48V30.86H3.13V13.48Z"/><path class="cls-1" d="M4.84,13.48v3.13H11V30.86h3.13V16.61h6.18V13.48Z"/><path class="cls-1" d="M23.22,19.05V13.42H22v6.87h4.83V19.05Z"/><path class="cls-1" d="M31.84,13.42H30.51l-2.75,6.87h1.33l.58-1.45h3l.58,1.45h1.33ZM30.17,17.6l1-2.51,1,2.51Z"/><path class="cls-1" d="M40.8,15.1a3.24,3.24,0,0,0-1.22-1.23,3.4,3.4,0,0,0-1.73-.45h-2.5v6.87h2.5a3.37,3.37,0,0,0,1.73-.45A3.27,3.27,0,0,0,40.8,18.6a3.67,3.67,0,0,0,0-3.5ZM39.73,18a2,2,0,0,1-.77.79,2.16,2.16,0,0,1-1.11.29H36.58v-4.4h1.27a2.18,2.18,0,0,1,1.11.28,2,2,0,0,1,.77.79,2.41,2.41,0,0,1,0,2.26Z"/><path class="cls-1" d="M48.45,13.42H46.63l-3.05,2.83V13.42H42.34v6.87h1.24V17.93l.68-.63,2.54,3h1.63l-3.26-3.83Z"/><path class="cls-1" d="M53.35,17.41a2,2,0,0,0,1.07-.71,2,2,0,0,0,.41-1.24,2.07,2.07,0,0,0-.27-1,1.92,1.92,0,0,0-.73-.73,2,2,0,0,0-1-.27H49.55v6.87h1.24V17.48h1.09l2,2.81h1.53Zm-2.56-1.17V14.66h2a.77.77,0,0,1,.57.21.78.78,0,0,1,.22.58.76.76,0,0,1-.22.57.77.77,0,0,1-.57.22Z"/><path class="cls-1" d="M60,13.42H58.69l-2.75,6.87h1.34l.58-1.45h3l.58,1.45h1.34ZM58.34,17.6l1-2.51,1,2.51Z"/><path class="cls-1" d="M68.91,17.37a2,2,0,0,0-.54-.69,2,2,0,0,0,.4-1.24,2,2,0,0,0-.26-1,2,2,0,0,0-.73-.73,2,2,0,0,0-1-.27H63.52v6.87H67.1a2,2,0,0,0,1-.27,1.91,1.91,0,0,0,.72-.73,2.14,2.14,0,0,0,.07-1.93Zm-4.15-2.71h2a.75.75,0,0,1,.56.22.77.77,0,0,1,.22.57.79.79,0,0,1-.22.57.75.75,0,0,1-.56.22h-2Zm2.9,4.17a.75.75,0,0,1-.56.22H64.76V17.48H67.1a.75.75,0,0,1,.56.22.77.77,0,0,1,.22.56A.78.78,0,0,1,67.66,18.83Z"/><path class="cls-1" d="M73.83,13.42H72.5l-2.75,6.87h1.33l.58-1.45h3l.58,1.45h1.33ZM72.15,17.6l1-2.51,1,2.51Z"/><path class="cls-1" d="M82.14,13.42v4.91l-3.44-4.91H77.33v6.87h1.24V15.38L82,20.29h1.37V13.42Z"/><path class="cls-1" d="M87.84,16.58v1.24h1.83a1.62,1.62,0,0,1-.27.63,2.49,2.49,0,0,1-.59.54,1.6,1.6,0,0,1-.92.25,2,2,0,0,1-1.1-.31,2.16,2.16,0,0,1-.78-.85,2.74,2.74,0,0,1,0-2.42,2.15,2.15,0,0,1,.78-.85,2,2,0,0,1,1.1-.31,2.11,2.11,0,0,1,.92.2,2,2,0,0,1,.73.6l1-.77a3.33,3.33,0,0,0-2.63-1.28,3.25,3.25,0,0,0-1.72.48A3.4,3.4,0,0,0,84.93,15a3.9,3.9,0,0,0,0,3.65A3.42,3.42,0,0,0,86.16,20a3.23,3.23,0,0,0,1.72.48,3,3,0,0,0,1.82-.62v.43h1.24V16.58Z"/><path class="cls-1" d="M28.61,24.82a4,4,0,0,0-1.42-1.5,3.75,3.75,0,0,0-2-.55v1.42a2.4,2.4,0,0,1,1.28.36,2.47,2.47,0,0,1,.9,1,2.93,2.93,0,0,1,.33,1.38,3,3,0,0,1-.33,1.39,2.46,2.46,0,0,1-.9,1,2.5,2.5,0,0,1-2.57,0,2.46,2.46,0,0,1-.9-1A2.9,2.9,0,0,1,22.69,27H21.27a4.23,4.23,0,0,0,.52,2,3.92,3.92,0,0,0,1.42,1.5,3.88,3.88,0,0,0,4,0A4,4,0,0,0,28.61,29a4.46,4.46,0,0,0,0-4.19Z"/><path class="cls-1" d="M36.2,24.12a2.24,2.24,0,0,0-.85-.84A2.33,2.33,0,0,0,34.16,23H30.39v7.88h1.42V24.4h2.35a.91.91,0,0,1,.67.25,1,1,0,0,1,0,1.32.92.92,0,0,1-.67.25H32.87v1.42h1.29a2.36,2.36,0,0,0,1.19-.3,2.27,2.27,0,0,0,.85-.84,2.44,2.44,0,0,0,0-2.38Z"/><path class="cls-1" d="M43.19,24.4V23H37.65v7.88h5.54V29.44H39.07V27.63h4.12V26.21H39.07V24.4Z"/><path class="cls-1" d="M58.28,23v3.23H54.34V23H52.92v7.88h1.42V27.63h3.94v3.23H59.7V23Z"/><path class="cls-1" d="M68.41,24.82A3.94,3.94,0,0,0,67,23.32a3.74,3.74,0,0,0-2-.55v1.42a2.4,2.4,0,0,1,1.28.36,2.51,2.51,0,0,1,.9,1,2.93,2.93,0,0,1,.33,1.38,3,3,0,0,1-.33,1.39,2.5,2.5,0,0,1-.9,1,2.5,2.5,0,0,1-2.57,0,2.5,2.5,0,0,1-.9-1,3,3,0,0,1-.33-1.39H61.07a4.26,4.26,0,0,0,.52,2.1A4,4,0,0,0,63,30.5a3.87,3.87,0,0,0,4,0A4,4,0,0,0,68.41,29a4.46,4.46,0,0,0,0-4.19Z"/><path class="cls-1" d="M75.73,23v5a1.47,1.47,0,0,1-.26.85,1.77,1.77,0,0,1-.74.6,2.73,2.73,0,0,1-2.12,0,1.75,1.75,0,0,1-.74-.6,1.47,1.47,0,0,1-.26-.85V23H70.19v5a2.84,2.84,0,0,0,.46,1.57,3.22,3.22,0,0,0,1.25,1.11,4.1,4.1,0,0,0,3.55,0,3.22,3.22,0,0,0,1.25-1.11A2.84,2.84,0,0,0,77.15,28V23Z"/><path class="cls-1" d="M84.25,27.49a2.63,2.63,0,0,0-.87-.85,3.5,3.5,0,0,0-1.28-.47l-.57-.1L81,26l-.07,0h0a1.65,1.65,0,0,1-.73-.33.67.67,0,0,1-.29-.5.75.75,0,0,1,.48-.64,2.17,2.17,0,0,1,1.05-.26,2,2,0,0,1,1,.23,1.09,1.09,0,0,1,.53.51l1.33-.48a2.28,2.28,0,0,0-1.05-1.21,3.49,3.49,0,0,0-1.78-.46,3.55,3.55,0,0,0-1.49.31,2.72,2.72,0,0,0-1.07.84,1.91,1.91,0,0,0-.4,1.17,1.86,1.86,0,0,0,.29,1,2.5,2.5,0,0,0,.79.79,3.15,3.15,0,0,0,1.15.45,6,6,0,0,0,.64.12l.2,0,.36.07a2,2,0,0,1,.92.38.82.82,0,0,1,.37.63.72.72,0,0,1-.23.5,1.66,1.66,0,0,1-.64.4,2.44,2.44,0,0,1-.9.16,2.24,2.24,0,0,1-1.19-.3,1,1,0,0,1-.53-.59l-1.36.4a2.28,2.28,0,0,0,.62,1,3.17,3.17,0,0,0,1.09.68,3.92,3.92,0,0,0,1.37.24A3.84,3.84,0,0,0,83,30.72a2.87,2.87,0,0,0,1.15-.89,2,2,0,0,0,.11-2.33Z"/><path class="cls-1" d="M91.25,24.4V23H85.71v7.88h5.54V29.44H87.13V27.63h4.12V26.21H87.13V24.4Z"/><path class="cls-1" d="M51.09,24.39a3.13,3.13,0,0,0-1.25-1.11,4.06,4.06,0,0,0-3.54,0A3.13,3.13,0,0,0,45,24.39,2.82,2.82,0,0,0,44.59,26v5H46V26a1.48,1.48,0,0,1,.27-.86A1.74,1.74,0,0,1,47,24.5a2.73,2.73,0,0,1,2.12,0,1.74,1.74,0,0,1,.74.59,1.48,1.48,0,0,1,.27.86v5h1.42V26A2.82,2.82,0,0,0,51.09,24.39Z"/><circle class="cls-1" cx="46.9" cy="27.13" r="0.4"/></g></svg>