<svg xmlns="http://www.w3.org/2000/svg" viewBox="0 0 66.72 13.02"><defs><style>.a{fill:#0071bc;}.b{fill:#f7931e;}</style></defs><title>nav-logo</title><path class="a" d="M0,0.17V12.87H2.29V0.17H0Z"/><path class="a" d="M3.54,0.17V2.45H8.08V12.87h2.29V2.45h4.52V0.17H3.54Z"/><path class="a" d="M17,4.24V0.12H16.07v5H19.6V4.24H17Z"/><path class="a" d="M23.28,0.12h-1l-2,5h1L21.7,4.08h2.19l0.42,1.06h1ZM22.05,3.18l0.74-1.84,0.73,1.84H22.05Z"/><path class="a" d="M29.83,1.35a2.37,2.37,0,0,0-.89-0.9A2.48,2.48,0,0,0,27.67.12H25.84v5h1.83a2.46,2.46,0,0,0,1.26-.33,2.39,2.39,0,0,0,.89-0.91,2.54,2.54,0,0,0,.33-1.28A2.55,2.55,0,0,0,29.83,1.35ZM29,3.46a1.46,1.46,0,0,1-.56.57,1.58,1.58,0,0,1-.81.21H26.75V1h0.93a1.6,1.6,0,0,1,.81.21,1.49,1.49,0,0,1,.56.57,1.66,1.66,0,0,1,.2.83A1.65,1.65,0,0,1,29,3.46Z"/><path class="a" d="M35.42,0.12H34.1L31.86,2.19V0.12H31v5h0.91V3.42L32.36,3l1.86,2.18h1.19L33,2.35Z"/><path class="a" d="M39,3a1.42,1.42,0,0,0,.78-0.52,1.46,1.46,0,0,0,.3-0.91A1.52,1.52,0,0,0,39.89.85,1.4,1.4,0,0,0,39.35.32,1.48,1.48,0,0,0,38.6.12H36.23v5h0.9V3.09h0.8l1.49,2.06h1.12Zm-1.87-.85V1H38.6a0.56,0.56,0,0,1,.42.16,0.57,0.57,0,0,1,.16.42A0.55,0.55,0,0,1,39,2a0.57,0.57,0,0,1-.41.16H37.13Z"/><path class="a" d="M43.88,0.12h-1l-2,5h1L42.3,4.08h2.2l0.42,1.06h1ZM42.66,3.18l0.74-1.84,0.73,1.84H42.66Z"/><path class="a" d="M50.38,3A1.42,1.42,0,0,0,50,2.51a1.45,1.45,0,0,0,.29-0.9A1.48,1.48,0,0,0,50.09.85,1.43,1.43,0,0,0,49.56.32,1.48,1.48,0,0,0,48.81.12H46.44v5h2.61A1.46,1.46,0,0,0,49.8,5a1.4,1.4,0,0,0,.53-0.53A1.57,1.57,0,0,0,50.38,3Zm-3-2h1.46a0.55,0.55,0,0,1,.41.16,0.57,0.57,0,0,1,.16.41,0.58,0.58,0,0,1-.16.42,0.55,0.55,0,0,1-.41.16H47.35V1Zm2.12,3.05a0.55,0.55,0,0,1-.41.16H47.35V3.09h1.71a0.55,0.55,0,0,1,.41.16,0.56,0.56,0,0,1,.16.41A0.57,0.57,0,0,1,49.47,4.08Z"/><path class="a" d="M54,0.12H53l-2,5h1l0.42-1.06h2.19L55,5.15h1ZM52.75,3.18l0.74-1.84,0.73,1.84H52.75Z"/><path class="a" d="M60.06,0.12V3.71L57.54,0.12h-1v5h0.9V1.56L60,5.15h1v-5h-0.9Z"/><path class="a" d="M64.22,2.43v0.9h1.34a1.18,1.18,0,0,1-.2.46,1.82,1.82,0,0,1-.43.39,1.17,1.17,0,0,1-.67.19,1.48,1.48,0,0,1-.81-0.23,1.58,1.58,0,0,1-.57-0.62,1.91,1.91,0,0,1-.21-0.89,1.91,1.91,0,0,1,.21-0.89,1.57,1.57,0,0,1,.57-0.62A1.49,1.49,0,0,1,64.25.91a1.55,1.55,0,0,1,.67.15,1.48,1.48,0,0,1,.53.44l0.72-.56A2.44,2.44,0,0,0,64.25,0,2.37,2.37,0,0,0,63,.35a2.48,2.48,0,0,0-.9,1,2.73,2.73,0,0,0-.33,1.34A2.71,2.71,0,0,0,62.1,4a2.5,2.5,0,0,0,.9,1,2.36,2.36,0,0,0,1.26.35,2.16,2.16,0,0,0,1.33-.45V5.15h0.91V2.43H64.22Z"/><path class="b" d="M20.92,8.46a2.89,2.89,0,0,0-1-1.1A2.74,2.74,0,0,0,18.42,7V8a1.75,1.75,0,0,1,.94.26A1.81,1.81,0,0,1,20,9a2.15,2.15,0,0,1,.24,1A2.17,2.17,0,0,1,20,11a1.8,1.8,0,0,1-.66.72,1.82,1.82,0,0,1-1.88,0A1.8,1.8,0,0,1,16.83,11a2.12,2.12,0,0,1-.24-0.93h-1a3.1,3.1,0,0,0,.38,1.45,2.87,2.87,0,0,0,1,1.09,2.83,2.83,0,0,0,2.91,0,2.9,2.9,0,0,0,1-1.09A3.26,3.26,0,0,0,20.92,8.46Z"/><path class="b" d="M26.46,7.95a1.64,1.64,0,0,0-.62-0.61A1.7,1.7,0,0,0,25,7.11H22.22v5.76h1V8.15H25a0.66,0.66,0,0,1,.49.18,0.72,0.72,0,0,1,0,1,0.67,0.67,0,0,1-.49.18H24v1H25a1.72,1.72,0,0,0,.87-0.22,1.66,1.66,0,0,0,.62-0.61A1.78,1.78,0,0,0,26.46,7.95Z"/><path class="b" d="M31.58,8.15v-1h-4v5.76h4v-1h-3V10.51h3v-1h-3V8.15h3Z"/><path class="b" d="M42.61,7.11V9.47H39.73V7.11h-1v5.76h1V10.51h2.88v2.36h1V7.11h-1Z"/><path class="b" d="M50,8.46a2.88,2.88,0,0,0-1-1.1A2.73,2.73,0,0,0,47.52,7V8a1.75,1.75,0,0,1,.94.26,1.84,1.84,0,0,1,.66.71,2.15,2.15,0,0,1,.24,1,2.17,2.17,0,0,1-.24,1,1.83,1.83,0,0,1-.66.72,1.83,1.83,0,0,1-1.88,0A1.83,1.83,0,0,1,45.92,11a2.15,2.15,0,0,1-.24-1h-1A3.11,3.11,0,0,0,45,11.52a2.89,2.89,0,0,0,1,1.09,2.83,2.83,0,0,0,2.9,0,2.89,2.89,0,0,0,1-1.09A3.26,3.26,0,0,0,50,8.46Z"/><path class="b" d="M55.36,7.11v3.66a1.07,1.07,0,0,1-.19.62,1.3,1.3,0,0,1-.54.44,2,2,0,0,1-1.55,0,1.28,1.28,0,0,1-.54-0.44,1.07,1.07,0,0,1-.19-0.62V7.11h-1v3.66a2.07,2.07,0,0,0,.33,1.15,2.35,2.35,0,0,0,.91.81,3,3,0,0,0,2.59,0,2.35,2.35,0,0,0,.91-0.81,2.07,2.07,0,0,0,.33-1.15V7.11h-1Z"/><path class="b" d="M61.6,10.41A1.92,1.92,0,0,0,61,9.79,2.56,2.56,0,0,0,60,9.44L59.6,9.37l-0.42-.08-0.05,0h0A1.21,1.21,0,0,1,58.59,9a0.49,0.49,0,0,1-.21-0.37,0.55,0.55,0,0,1,.35-0.47A1.59,1.59,0,0,1,59.5,8a1.47,1.47,0,0,1,.72.16,0.8,0.8,0,0,1,.38.37l1-.35A1.67,1.67,0,0,0,60.8,7.3,2.55,2.55,0,0,0,59.5,7a2.6,2.6,0,0,0-1.09.23,2,2,0,0,0-.78.61,1.4,1.4,0,0,0-.29.85,1.36,1.36,0,0,0,.21.73,1.83,1.83,0,0,0,.58.58,2.31,2.31,0,0,0,.84.33l0.47,0.09,0.14,0,0.26,0a1.45,1.45,0,0,1,.68.28,0.6,0.6,0,0,1,.27.46,0.53,0.53,0,0,1-.17.36,1.21,1.21,0,0,1-.46.3,1.78,1.78,0,0,1-.66.12,1.64,1.64,0,0,1-.87-0.22,0.73,0.73,0,0,1-.39-0.43l-1,.3a1.67,1.67,0,0,0,.45.72,2.32,2.32,0,0,0,.8.49,2.86,2.86,0,0,0,1,.18,2.81,2.81,0,0,0,1.18-.24,2.1,2.1,0,0,0,.84-0.65A1.48,1.48,0,0,0,61.6,10.41Z"/><path class="b" d="M66.72,8.15v-1H62.67v5.76h4.05v-1h-3V10.51h3v-1h-3V8.15h3Z"/><path class="b" d="M37.35,8.14a2.29,2.29,0,0,0-.91-0.81,3,3,0,0,0-2.59,0,2.29,2.29,0,0,0-.91.81,2.06,2.06,0,0,0-.33,1.15v3.65h1V9.29a1.08,1.08,0,0,1,.19-0.63,1.27,1.27,0,0,1,.54-0.43,2,2,0,0,1,1.55,0,1.27,1.27,0,0,1,.54.43,1.08,1.08,0,0,1,.19.63v3.65h1V9.29A2.06,2.06,0,0,0,37.35,8.14Z"/><circle class="b" cx="34.29" cy="10.14" r="0.29"/></svg>